<?xml version="1.0" encoding="UTF-8"?>
<svg width="35px" height="35px" viewBox="0 0 35 35" version="1.1" xmlns="http://www.w3.org/2000/svg" xmlns:xlink="http://www.w3.org/1999/xlink">
    <!-- Generator: sketchtool 47.1 (45422) - http://www.bohemiancoding.com/sketch -->
    <title>4B5DC264-BC0C-4AF2-A8C7-3F1FD3C6D176</title>
    <desc>Created with sketchtool.</desc>
    <defs></defs>
    <g id="Symbols" stroke="none" stroke-width="1" fill="none" fill-rule="evenodd">
        <g id="Mobile-Footer" transform="translate(-40.000000, -392.000000)">
            <g id="Group-21">
                <g id="Group-28">
                    <g id="Group-7" transform="translate(40.000000, 392.000000)">
                        <g id="Facebook">
                            <path d="M0,17.5 C0,7.8350164 7.8350164,0 17.5,0 C27.1649836,0 35,7.8350164 35,17.5 C35,27.1649836 27.1649836,35 17.5,35 C7.8350164,35 0,27.1649836 0,17.5 Z" id="back" fill="#3B5998"></path>
                            <path d="M18.7407173,27.2062851 L18.7407173,17.6853612 L21.3689087,17.6853612 L21.7172008,14.4043981 L18.7407173,14.4043981 L18.7451825,12.7622444 C18.7451825,11.9065187 18.8264879,11.4480013 20.0555572,11.4480013 L21.6985954,11.4480013 L21.6985954,8.16666667 L19.0700319,8.16666667 C15.9127044,8.16666667 14.801407,9.75828677 14.801407,12.4348913 L14.801407,14.4047696 L12.8333333,14.4047696 L12.8333333,17.6857327 L14.801407,17.6857327 L14.801407,27.2062851 L18.7407173,27.2062851 Z" id="Shape" fill="#FFFFFF"></path>
                        </g>
                    </g>
                </g>
            </g>
        </g>
    </g>
</svg>