<svg xmlns="http://www.w3.org/2000/svg" width="37" height="40" viewBox="0 0 37 40">
    <g fill="none" fill-rule="evenodd">
        <path fill="#EFEEEE" d="M-40-50h414v490H-40z"/>
        <g fill="#AC7B3E">
            <path d="M6.3 10.076c2.429 1.35 4.839 2.718 7.268 4.064-1.192-2.042-2.406-4.072-3.61-6.11-1.225.676-2.451 1.35-3.658 2.046m5.814-3.264c1.214 2.038 2.429 4.073 3.65 6.099.02-2.703.008-5.406.008-8.113-1.222.66-2.44 1.334-3.658 2.014M1.507 9.142C6.78 6.186 12.053 3.242 17.326.29c-.004 4.371.034 8.743-.02 13.111-1.328.82-2.702 1.552-4.065 2.31A4336.42 4336.42 0 0 0 1.507 9.142M23.634 14.126c2.406-1.357 4.839-2.66 7.215-4.072l-3.606-2.026c-1.21 2.03-2.452 4.037-3.61 6.098m-2.211-9.342c-.012 2.707-.012 5.422.003 8.129 1.215-2.026 2.418-4.065 3.64-6.091-1.21-.68-2.429-1.361-3.643-2.038M19.865.354C25.172 3.216 30.415 6.2 35.672 9.16c-3.906 2.17-7.816 4.336-11.703 6.542-1.39-.716-2.73-1.525-4.112-2.256-.02-4.36-.008-8.724.008-13.092M3.486 21.288c-.016 1.373-.02 2.742.007 4.115C5.88 24 8.325 22.716 10.704 21.312c-2.402-.016-4.812-.024-7.218-.024m-.016-6.472c.012 1.354-.011 2.703-.003 4.053 2.413.012 4.831.066 7.237-.055C8.275 17.52 5.9 16.123 3.47 14.816M.25 11.261c3.936 2.163 7.846 4.368 11.764 6.566.007 1.513-.023 3.022-.004 4.53C8.096 24.564 4.167 26.746.246 28.94c0-5.893-.004-11.785.003-17.678M26.43 21.298c2.41 1.384 4.846 2.726 7.275 4.087.004-1.365-.015-2.726-.011-4.087h-7.265m.08-2.44c2.395.036 4.79.02 7.185.024.019-1.357.004-2.719.015-4.076-2.399 1.354-4.82 2.668-7.2 4.053m-1.332-1.043c3.91-2.197 7.831-4.38 11.745-6.569.004 5.897.004 11.793 0 17.686-3.91-2.19-7.816-4.384-11.738-6.55-.011-1.521.008-3.042-.007-4.567M12.119 33.361c1.214.677 2.433 1.354 3.647 2.027 0-2.7.004-5.399 0-8.098-1.233 2.014-2.44 4.045-3.647 6.071m-5.795-3.263c1.188.708 2.403 1.361 3.61 2.046 1.218-2.023 2.444-4.041 3.643-6.076-2.433 1.319-4.839 2.68-7.253 4.03m-4.812.949c3.91-2.198 7.835-4.376 11.753-6.573 1.34.746 2.68 1.501 4.032 2.228.106 4.392.015 8.79.057 13.186-5.285-2.945-10.561-5.897-15.842-8.841M21.436 27.324c-.042 2.687-.019 5.379-.023 8.07 1.215-.684 2.445-1.35 3.66-2.034-1.223-2.007-2.392-4.045-3.637-6.036m2.186-1.253c1.199 2.03 2.406 4.06 3.62 6.08 1.203-.681 2.422-1.339 3.61-2.05a626.58 626.58 0 0 0-7.23-4.03m-3.77.665c1.348-.762 2.719-1.493 4.063-2.267 3.917 2.197 7.866 4.329 11.73 6.612-5.28 2.894-10.516 5.885-15.8 8.782.004-4.375.015-8.751.007-13.127"/>
        </g>
    </g>
</svg>
