<svg xmlns="http://www.w3.org/2000/svg" xmlns:xlink="http://www.w3.org/1999/xlink" width="5" height="15" viewBox="0 0 5 15">
    <defs>
        <path id="a" d="M0 0h35v35H0z"/>
    </defs>
    <g fill="none" fill-rule="evenodd">
        <g transform="translate(-15 -10)">
            <use fill="#000" fill-opacity=".3" xlink:href="#a"/>
            <path stroke="#FFF" stroke-width=".5" d="M.25.25h34.5v34.5H.25z"/>
        </g>
        <g fill="#FFF" fill-rule="nonzero">
            <path d="M2.016 1.5C2.134.668 2.886 0 3.71 0c.828 0 1.39.668 1.275 1.5-.12.832-.872 1.5-1.696 1.5-.826 0-1.391-.668-1.273-1.5zM4.956 13.813C4.424 14.698 3.354 15 2.492 15 1.1 15 .401 14.303.584 13.024l1-7.211a.302.302 0 0 0-.3-.346H.192c-.139 0-.209-.093-.187-.233C.004 5.093.122 5 .26 5h3.767c.14 0 .233.093.208.234l-1.137 8.138c-.094.72.093.93.556.93.42 0 .792-.326 1.002-.651.066-.093.163-.14.279-.093.07.046.093.163.021.255z"/>
        </g>
    </g>
</svg>
