<svg xmlns="http://www.w3.org/2000/svg" width="25" height="25" viewBox="0 0 25 25">
    <g fill="none" fill-rule="evenodd" transform="translate(-15 -12)">
        <rect width="314" height="50" fill="#F2F2F2" rx="2"/>
        <path fill="#323232" d="M26.498 34.7l.322.307c.18.17.371.314.57.428a2.997 2.997 0 0 0 4.073-1.084c.012-.02.022-.043.033-.065l.235-.456.434.105c.242.059.48.088.709.088 1.644 0 2.982-1.328 2.982-2.96 0-.026-.002-.05-.004-.074l-.026-.511.429-.125a2.944 2.944 0 0 0 2.047-2.074c.207-.763.1-1.561-.298-2.246-.012-.021-.025-.04-.038-.06l-.28-.433.307-.32c.172-.178.317-.368.431-.565a2.954 2.954 0 0 0-1.091-4.045l-.065-.033-.46-.234.106-.43c.059-.24.089-.477.089-.704 0-1.633-1.338-2.961-2.982-2.961-.025 0-.048.001-.072.003l-.517.025-.125-.425a2.96 2.96 0 0 0-2.088-2.033 2.98 2.98 0 0 0-2.263.296c-.021.012-.041.026-.06.04l-.435.277-.323-.306a2.98 2.98 0 0 0-2.832-.724 2.96 2.96 0 0 0-1.81 1.38c-.012.02-.023.042-.033.064l-.237.457-.433-.105a3.015 3.015 0 0 0-.708-.088c-1.645 0-2.983 1.328-2.983 2.96 0 .025.002.048.004.07l.024.516-.427.124a2.954 2.954 0 0 0-1.75 4.32l.04.06.28.432-.308.32a2.923 2.923 0 0 0-.729 2.813c.206.764.7 1.403 1.39 1.798.021.012.043.023.065.033l.46.234-.107.43c-.059.24-.088.477-.088.704 0 1.633 1.337 2.962 2.982 2.962.024 0 .048-.002.071-.004l.518-.025.125.425c.07.237.162.456.277.653a2.96 2.96 0 0 0 1.81 1.38c.77.205 1.574.1 2.263-.296.021-.012.041-.025.061-.039l.435-.278zm2.375 2.256a4.11 4.11 0 0 1-2.508-.854 4.112 4.112 0 0 1-2.919.299 4.083 4.083 0 0 1-2.74-2.398c-2.162-.12-3.883-1.904-3.883-4.08 0-.18.013-.363.039-.547a4.058 4.058 0 0 1-1.72-2.36 4.034 4.034 0 0 1 .72-3.556 4.077 4.077 0 0 1 2.114-5.62c.12-2.147 1.917-3.857 4.109-3.857.18 0 .365.014.55.04a4.083 4.083 0 0 1 2.378-1.708 4.114 4.114 0 0 1 3.58.715 4.11 4.11 0 0 1 2.919-.299 4.084 4.084 0 0 1 2.74 2.398c2.162.12 3.884 1.904 3.884 4.08 0 .18-.013.363-.04.547a4.075 4.075 0 0 1 1.31 5.462c-.091.156-.195.307-.31.454a4.03 4.03 0 0 1 .3 2.899 4.062 4.062 0 0 1-2.414 2.721c-.12 2.147-1.917 3.857-4.108 3.857-.181 0-.366-.014-.551-.04a4.128 4.128 0 0 1-3.45 1.847z"/>
        <path fill="#323232" d="M31.573 34.69l-9.104-19.832.916-.415 9.104 19.831z"/>
        <path fill="#323232" d="M21.518 33.729l-.82-.58 12.743-17.746.82.58z"/>
        <path fill="#323232" d="M26.93 35.461l-1.002-.096 2.1-21.694 1.003.096z"/>
        <path fill="#323232" d="M36.121 31.3L18.252 18.646l.585-.814 17.869 12.654z"/>
        <path fill="#323232" d="M38.354 26.107L16.508 24.02l.096-.995 21.847 2.087z"/>
        <path fill="#323232" d="M17.703 29.541l-.418-.91 19.97-9.04.418.91z"/>
        <path fill="#F2F2F2" d="M34.472 24.566c0 3.835-3.13 6.944-6.993 6.944-3.862 0-6.993-3.109-6.993-6.944s3.131-6.944 6.993-6.944c3.862 0 6.993 3.109 6.993 6.944"/>
        <path fill="#323232" d="M27.48 17.997c-3.649 0-6.616 2.947-6.616 6.569s2.967 6.57 6.615 6.57 6.616-2.948 6.616-6.57c0-3.622-2.968-6.57-6.616-6.57m0 13.89c-4.064 0-7.37-3.284-7.37-7.32 0-4.036 3.306-7.32 7.37-7.32s7.37 3.284 7.37 7.32c0 4.036-3.306 7.32-7.37 7.32"/>
        <path d="M32.497 24.148c.01.138.017.277.017.418 0 2.761-2.254 5-5.035 5a5.045 5.045 0 0 1-2.373-.59"/>
        <path fill="#323232" d="M27.48 29.94a5.398 5.398 0 0 1-2.553-.633.374.374 0 0 1-.154-.508.379.379 0 0 1 .51-.153 4.642 4.642 0 0 0 2.195.545c2.569 0 4.658-2.075 4.658-4.625 0-.13-.005-.26-.016-.387a.376.376 0 0 1 .345-.405c.211-.016.39.137.408.343.012.148.018.3.018.449 0 2.964-2.428 5.375-5.412 5.375"/>
        <path fill="#1A1A1A" d="M31.052 21.043a5.048 5.048 0 0 1 .768.99"/>
        <path fill="#323232" d="M31.82 22.408a.378.378 0 0 1-.325-.185 4.634 4.634 0 0 0-.711-.916.373.373 0 0 1 .001-.53.38.38 0 0 1 .534.002 5.425 5.425 0 0 1 .827 1.063.373.373 0 0 1-.325.566"/>
        <path d="M23.568 27.715a4.95 4.95 0 0 1-1.124-3.149c0-2.761 2.255-5 5.035-5 .695 0 1.358.14 1.96.393"/>
        <path fill="#323232" d="M23.569 28.09a.378.378 0 0 1-.294-.139 5.333 5.333 0 0 1-1.208-3.385c0-2.964 2.428-5.375 5.412-5.375.73 0 1.44.143 2.107.423.192.08.282.3.2.491a.378.378 0 0 1-.494.2 4.656 4.656 0 0 0-1.813-.364c-2.568 0-4.657 2.075-4.657 4.625a4.589 4.589 0 0 0 1.04 2.913.373.373 0 0 1-.056.527.377.377 0 0 1-.237.084"/>
    </g>
</svg>
