<svg xmlns="http://www.w3.org/2000/svg" width="26" height="26" viewBox="0 0 26 26">
    <path fill="#D29851" fill-rule="nonzero" d="M24 5.278h-.018V.586A.58.58 0 0 0 23.411 0H2.589a.58.58 0 0 0-.571.586v4.692H2c-1.103 0-2 .921-2 2.053v9.872c0 1.132.897 2.053 2 2.053h2.762v6.158a.58.58 0 0 0 .571.586h15.62a.58.58 0 0 0 .57-.586v-6.158H24c1.103 0 2-.921 2-2.053V7.33c0-1.132-.897-2.053-2-2.053zM3.16 1.173h19.68v4.105H3.16V1.173zm17.22 23.654H5.906v-8.601H20.38v8.601zm4.477-7.624a.87.87 0 0 1-.857.88h-2.476v-1.857h.667a.58.58 0 0 0 .571-.587.58.58 0 0 0-.571-.586H3.809a.58.58 0 0 0-.571.586.58.58 0 0 0 .571.587h.953v1.857H2a.87.87 0 0 1-.857-.88V7.33A.87.87 0 0 1 2 6.45h22a.87.87 0 0 1 .857.88v9.872zM8.43 19.843h9.142a.58.58 0 0 0 .572-.587.58.58 0 0 0-.572-.587H8.43a.58.58 0 0 0-.572.587.58.58 0 0 0 .572.586zm0 3.127h9.142a.58.58 0 0 0 .572-.586.58.58 0 0 0-.572-.587H8.43a.58.58 0 0 0-.572.587.58.58 0 0 0 .572.586zM22.19 8.65h-5.238a.58.58 0 0 0-.572.587v2.737a.58.58 0 0 0 .572.586h5.238a.58.58 0 0 0 .571-.586V9.237a.58.58 0 0 0-.571-.587zm-.572 2.737h-4.095V9.823h4.095v1.564z"/>
</svg>
