<?xml version="1.0" encoding="UTF-8"?>
<svg width="63px" height="40px" viewBox="0 0 63 40" version="1.1" xmlns="http://www.w3.org/2000/svg" xmlns:xlink="http://www.w3.org/1999/xlink">
    <!-- Generator: sketchtool 47.1 (45422) - http://www.bohemiancoding.com/sketch -->
    <title>7B74470B-2646-455A-97E0-7947DFAF98B2</title>
    <desc>Created with sketchtool.</desc>
    <defs>
        <polygon id="path-1" points="0.0435425439 0.0233893194 4.33738737 0.0233893194 4.33738737 4.07949295 0.0435425439 4.07949295 0.0435425439 0.0233893194"></polygon>
    </defs>
    <g id="-Zeplin-Box" stroke="none" stroke-width="1" fill="none" fill-rule="evenodd">
        <g id="1-Mobile_Rec" transform="translate(-176.000000, -13.000000)">
            <g id="Group-30">
                <g id="Group-10">
                    <g id="Group-12"></g>
                </g>
            </g>
            <g id="Group-4">
                <rect id="Rectangle-9" fill="#FFFFFF" x="0" y="0" width="414" height="65"></rect>
                <g id="Group-2" transform="translate(176.000000, 13.000000)">
                    <g id="Group-3" transform="translate(40.004938, 0.053097)">
                        <mask id="mask-2" fill="white">
                            <use xlink:href="#path-1"></use>
                        </mask>
                        <g id="Clip-2"></g>
                        <path d="M1.34382123,2.59708718 C2.00273927,2.95208704 2.65649336,3.31220218 3.3154114,3.66617899 C2.9921491,3.12907545 2.66269008,2.59504107 2.33632943,2.05896059 C2.00377205,2.23697204 1.67121468,2.41396045 1.34382123,2.59708718 M2.92088681,1.73874457 C3.25034582,2.27482506 3.57980484,2.80988249 3.91132943,3.34289381 C3.91649336,2.63187103 3.913395,1.92084825 3.913395,1.20880241 C3.58187041,1.38272165 3.25137861,1.55971006 2.92088681,1.73874457 M0.0435425439,2.35155413 C1.47395238,1.57403282 2.90436222,0.799580664 4.33477205,0.0230824031 C4.33373927,1.17299551 4.34406713,2.32290861 4.32960812,3.47179866 C3.96916549,3.68766313 3.59632943,3.87999735 3.22659172,4.07949295 C2.16695238,3.50146724 1.10524746,2.92651068 0.0435425439,2.35155413" id="Fill-1" fill="#1E1A17" mask="url(#mask-2)"></path>
                    </g>
                    <path d="M46.0508311,3.71569482 C46.7035525,3.35864885 47.3635033,3.01592564 48.0079623,2.6445569 C47.6816016,2.46654544 47.3562738,2.28955704 47.0299131,2.11154558 C46.7014869,2.64557996 46.3647984,3.17347601 46.0508311,3.71569482 M45.450782,1.25831824 C45.4476836,1.97036408 45.4476836,2.68445602 45.4518148,3.39650186 C45.7812738,2.86349054 46.1076344,2.32741005 46.439159,1.79439873 C46.1107328,1.61536421 45.780241,1.4363297 45.450782,1.25831824 M45.0283721,0.0930593215 C46.468077,0.846027333 47.8902246,1.63071003 49.3165033,2.4092544 C48.2568639,2.98011873 47.1961918,3.54996001 46.1417164,4.13003184 C45.7647492,3.94178983 45.4012082,3.72899453 45.0263066,3.53666031 C45.0211426,2.38981637 45.024241,1.24194937 45.0283721,0.0930593215" id="Fill-4" fill="#1E1A17"></path>
                    <path d="M40.585323,5.59944482 C40.5811918,5.96058301 40.580159,6.32069814 40.5873885,6.68183633 C41.2349459,6.31251371 41.8979951,5.97490577 42.5434869,5.60558314 C41.8917984,5.60149093 41.2380443,5.59944482 40.585323,5.59944482 M40.5811918,3.89708236 C40.5842902,4.25310528 40.5780934,4.60810514 40.580159,4.963105 C41.2349459,4.96617417 41.8907656,4.98049693 42.5434869,4.94878224 C41.8845689,4.60810514 41.2401098,4.24082862 40.5811918,3.89708236 M39.7074541,2.96201067 C40.7753557,3.5308289 41.8360279,4.11090072 42.8987656,4.68892644 C42.9008311,5.08689458 42.8925689,5.48383968 42.8977328,5.88078477 C41.8360279,6.46085659 40.7701918,7.03479009 39.7064213,7.61179275 C39.7064213,6.06186539 39.7053885,4.51193803 39.7074541,2.96201067" id="Fill-6" fill="#1E1A17"></path>
                    <path d="M46.8092066,5.60190015 C47.4629607,5.9661075 48.1239443,6.31906126 48.7828623,6.67713028 C48.7838951,6.3180382 48.7787311,5.95996918 48.7797639,5.60190015 C48.1229115,5.60190015 47.466059,5.60190015 46.8092066,5.60190015 M46.8308951,4.96044506 C47.480518,4.96965255 48.130141,4.96556034 48.7797639,4.96658339 C48.7849279,4.60953742 48.7807967,4.25146839 48.7838951,3.89442242 C48.1332393,4.25044534 47.4763869,4.59623771 46.8308951,4.96044506 M46.4694197,4.68626649 C47.5300918,4.10824078 48.5938623,3.53430728 49.6555672,2.95832768 C49.6566,4.50927809 49.6566,6.0602285 49.6555672,7.61015586 C48.5948951,7.03417626 47.5352557,6.4571736 46.4714852,5.88733232 C46.4683869,5.48731806 46.4735508,5.0873038 46.4694197,4.68626649" id="Fill-8" fill="#1E1A17"></path>
                    <path d="M42.9272705,8.77500556 C43.2567295,8.95301702 43.5872213,9.13102848 43.9166803,9.30801688 C43.9166803,8.59801716 43.9177131,7.88801743 43.9166803,7.1780177 C43.5820574,7.70795986 43.2546639,8.24199424 42.9272705,8.77500556 M41.3553689,7.91666295 C41.6775984,8.10285884 42.0070574,8.27473198 42.3344508,8.45478955 C42.6649426,7.92280128 42.9975,7.39183606 43.3228279,6.85677863 C42.662877,7.20359406 42.0101557,7.56166309 41.3553689,7.91666295 M40.0499262,8.16628822 C41.1105984,7.5882625 42.1754016,7.01535206 43.2381393,6.43732634 C43.6016803,6.63375278 43.9652213,6.83222533 44.3318607,7.02353649 C44.3607787,8.17856487 44.3359918,9.33563935 44.3473525,10.4916908 C42.9138443,9.71723863 41.4824016,8.94074037 40.0499262,8.16628822" id="Fill-10" fill="#1E1A17"></path>
                    <path d="M45.4547066,7.18691827 C45.4433459,7.89384884 45.4495426,8.60180246 45.4485098,9.30975608 C45.7779689,9.12969851 46.111559,8.95475621 46.441018,8.77469864 C46.1094934,8.24680259 45.7924279,7.71072211 45.4547066,7.18691827 M46.0475262,6.85749477 C46.3728541,7.39152915 46.7002475,7.92556352 47.0297066,8.45652874 C47.3560672,8.27749422 47.686559,8.10459804 48.0087885,7.91737909 C47.3581328,7.56033312 46.7033459,7.20635631 46.0475262,6.85749477 M45.0250672,7.03243706 C45.3906738,6.83191841 45.762477,6.63958419 46.1270508,6.43599637 C47.1897885,7.01402209 48.2607885,7.57465588 49.3090672,8.17518879 C47.8765918,8.93634123 46.4565098,9.72307004 45.0230016,10.4852455 C45.0240344,9.33430938 45.0271328,8.18337322 45.0250672,7.03243706" id="Fill-12" fill="#1E1A17"></path>
                    <path d="M32.6366852,15.7150994 C32.1595377,16.9315111 31.6813574,18.1489458 31.2021443,19.3653574 C31.0916361,19.6528357 30.9646033,19.9351987 30.888177,20.2339306 C32.1915541,20.2462072 33.4969967,20.2564378 34.8024393,20.2318845 C34.736341,19.9924897 34.6454557,19.7623025 34.5535377,19.5310922 C34.0009967,18.0947239 33.4536197,16.6552864 32.8990131,15.2189181 C32.7554557,15.3508921 32.7048492,15.5411802 32.6366852,15.7150994 M33.0590951,11.5983287 C33.1262262,11.5011385 33.1964557,11.3916717 33.3100623,11.3456343 C33.4360623,11.3118735 33.5599967,11.3926948 33.6291934,11.4929541 C33.7975377,11.7241644 33.897718,11.9952738 34.0133902,12.2551296 C35.5677344,15.8808342 37.0611443,19.5310922 38.6320131,23.1496355 C38.9201607,23.8238283 39.2145049,24.5062056 39.6678984,25.0913927 C39.9147344,25.4044473 40.2431607,25.6868103 40.6490459,25.7604702 C40.9692098,25.8331071 41.3028,25.8003694 41.6239967,25.8617526 C41.7210787,25.8607296 41.7654885,25.9967958 41.6983574,26.0602252 C41.6167672,26.1400234 41.4948984,26.1574153 41.385423,26.1645767 C40.3464393,26.1942453 39.3074557,26.1748072 38.2684721,26.1635536 C37.7417508,26.1502539 37.2129639,26.1645767 36.6872754,26.1164931 C36.5901934,26.1021704 36.4776197,26.0980782 36.408423,26.019303 C36.3826033,25.9589428 36.4146197,25.8975595 36.4786525,25.8842598 C36.6056852,25.8228765 36.7657672,25.8075307 36.8566525,25.6888564 C36.936177,25.5712052 36.8814393,25.4228623 36.8421934,25.3011188 C36.3299311,24.0069551 35.8145705,22.7148374 35.3012754,21.4216967 C35.2578984,21.3275757 35.2093574,21.1874172 35.0781934,21.2037861 C33.6694721,21.1925325 32.259718,21.1986708 30.8499639,21.1945786 C30.7260295,21.2007169 30.5948656,21.1812789 30.4791934,21.2314086 C30.3986361,21.3500829 30.3531934,21.4881952 30.2984557,21.6191462 C29.943177,22.5143187 29.5878984,23.4105144 29.2377836,24.3087561 C29.1210787,24.6371565 29.0126361,24.9809028 29.032259,25.3328335 C29.0384557,25.510845 29.1520623,25.6796489 29.3204066,25.7451244 C29.6447016,25.888352 30.0092754,25.7891158 30.3459639,25.868914 C30.4554393,25.8893751 30.4420131,26.0336257 30.3831443,26.0991012 C30.3335705,26.1737842 30.234423,26.1635536 30.1569639,26.1686689 C29.2191934,26.1911761 28.2834885,26.095009 27.3467508,26.1390003 C26.7053902,26.1543462 26.0640295,26.1809456 25.4226689,26.1717381 C25.2646525,26.1799225 25.1820295,26.0223721 25.1882262,25.8852829 C25.6509148,25.7788852 26.1559475,25.8617526 26.5917836,25.6479343 C27.0090295,25.4556 27.2920131,25.0729777 27.4944393,24.6770557 C27.7743246,24.1256294 27.9912098,23.5445345 28.2370131,22.9777624 C29.7386852,19.4113949 31.2403574,15.8460504 32.7420295,12.2796829 C32.841177,12.0494957 32.9310295,11.8141932 33.0590951,11.5983287" id="Fill-14" fill="#1E1A17"></path>
                    <path d="M14.1080754,11.7247782 C14.1462885,11.607127 14.1690098,11.4372999 14.3136,11.4055852 C14.4974361,11.419908 14.6657803,11.5037985 14.8413541,11.5529051 C15.0179607,11.60815 15.2038623,11.6142883 15.3856328,11.6327033 C16.3595508,11.7237552 17.3365672,11.7196629 18.3125508,11.7196629 L24.0424525,11.7196629 C24.9151574,11.7125016 25.7919934,11.7483085 26.6616,11.6470261 C26.9445836,11.6173575 27.2203377,11.5406284 27.5064197,11.5406284 C27.5973049,11.7462623 27.572518,11.9754265 27.5683869,12.1933371 C27.5497967,12.7642014 27.5332721,13.3350658 27.5219115,13.9059301 C27.5167475,14.0563191 27.5177803,14.2138695 27.4578787,14.355051 C27.4268951,14.487025 27.2069115,14.4706561 27.1625016,14.355051 C27.0581902,14.0798493 27.1284197,13.752472 26.947682,13.5038697 C26.710141,13.1775154 26.3083869,13.0301956 25.9283213,12.9360746 C25.2993541,12.7856856 24.6476656,12.79387 24.0042393,12.775455 C23.3556492,12.7580631 22.7080918,12.7437404 22.0595016,12.7324868 C22.0615672,16.0072838 22.0533049,19.2810577 22.0687967,22.5548317 C22.0780918,23.3057536 22.0904852,24.0597447 22.1875672,24.8045282 C22.2309443,25.1022371 22.3466164,25.4429142 22.6461246,25.5738651 C23.1883377,25.8009832 23.8018131,25.6332023 24.3522885,25.8286057 C24.3347311,25.8930581 24.3182066,25.9575105 24.3006492,26.022986 C23.9970098,26.1201761 23.6758131,26.0823231 23.3628787,26.080277 C22.474682,26.0628851 21.5844197,26.0465162 20.696223,26.0352626 C20.0548623,26.0465162 19.4135016,26.060839 18.772141,26.0761848 C18.4364852,26.079254 18.0956656,26.1211992 17.7682721,26.0311704 C17.7455508,25.9626258 17.7228295,25.8930581 17.701141,25.8245134 C18.1059934,25.664917 18.5697148,25.7917757 18.9642393,25.5984184 C19.2296656,25.4439372 19.305059,25.1186059 19.3494689,24.8393121 C19.4888951,23.8039811 19.4734033,22.7573965 19.4826984,21.7149041 C19.4930262,18.721447 19.4857967,15.7279899 19.4878623,12.7345329 C18.3517967,12.7580631 17.2157311,12.7856856 16.0796656,12.8255847 C15.6035508,12.8572994 15.0923213,12.8613916 14.6761082,13.1222705 C14.3311574,13.3678035 14.1876,13.7811175 14.0161574,14.148394 C13.9707148,14.2895755 13.7383377,14.2936677 13.6887639,14.1545323 C13.6505508,13.9969819 13.6763705,13.8343163 13.6990918,13.6767659 C13.8075344,13.0209881 13.9572885,12.3723716 14.1080754,11.7247782" id="Fill-16" fill="#1E1A17"></path>
                    <path d="M41.8903525,12.0639207 C41.7405984,12.0332291 41.7777787,11.7897422 41.9223689,11.7836038 C42.2549262,11.7457508 42.5895492,11.7631427 42.9221066,11.768258 C44.3969262,11.8163416 45.8727787,11.8071341 47.3475984,11.7549583 C47.5489918,11.7426817 47.7638115,11.7508661 47.9290574,11.880794 C47.9032377,11.9411542 47.8794836,12.0004914 47.8557295,12.0618746 C47.4498443,12.1314423 47.0047131,12.0710821 46.6349754,12.2849005 C46.3457951,12.4670041 46.287959,12.8332576 46.2683361,13.1452892 C46.2074016,14.0200007 46.2197951,14.8977813 46.2146311,15.7735158 C46.2146311,17.5761376 46.2043033,19.3787594 46.2218607,21.1813812 C46.2383852,22.4530378 46.3292705,23.7277635 46.2032705,24.997374 C46.1051557,25.919146 45.909959,26.8552407 45.4328115,27.6654998 C45.0104016,28.3980067 44.4248115,29.0292312 43.7720902,29.5683809 C43.1761721,30.0461473 42.5399754,30.4809454 41.8469754,30.8113919 C41.562959,30.9464351 41.2748115,31.1183082 40.9463852,31.0998933 C40.9463852,31.0252103 40.9246967,30.9474582 40.9484508,30.8748213 C41.0217787,30.7950231 41.1229918,30.7448934 41.2149098,30.6876023 C42.1475164,30.1811904 42.920041,29.3576317 43.2887459,28.3621998 C43.5510738,27.6716381 43.6450574,26.9340159 43.6997951,26.201509 C43.7803525,25.0515959 43.7669262,23.8975905 43.7762213,22.7446083 C43.7772541,21.0176925 43.7720902,19.2907767 43.7741557,17.5628379 C43.7720902,16.1019163 43.7896475,14.6399716 43.7287131,13.17905 C43.7121885,12.8537187 43.6213033,12.4751886 43.3094016,12.3053616 C42.8776967,12.0598285 42.3613033,12.1467881 41.8903525,12.0639207" id="Fill-18" fill="#1E1A17"></path>
                    <g id="Group" transform="translate(0.000000, 33.490962)" fill="#020303">
                        <path d="M0.559770492,2.24430195 C0.559770492,1.09029662 0.559770492,0.882616588 0.545311475,0.646291031 C0.530852459,0.394619657 0.455459016,0.268783971 0.291245902,0.231954014 C0.208622951,0.209446818 0.111540984,0.202285437 0.0599016393,0.202285437 C0.0289180328,0.202285437 0,0.186939622 0,0.157271045 C0,0.113279708 0.0371803279,0.0979338922 0.118770492,0.0979338922 C0.366639344,0.0979338922 0.836557377,0.120441088 0.873737705,0.120441088 C0.910918033,0.120441088 1.38186885,0.0979338922 1.60598361,0.0979338922 C1.68860656,0.0979338922 1.72578689,0.113279708 1.72578689,0.157271045 C1.72578689,0.186939622 1.69583607,0.202285437 1.66485246,0.202285437 C1.6142459,0.202285437 1.56880328,0.209446818 1.47895082,0.223769579 C1.27652459,0.26162259 1.21765574,0.387458277 1.20216393,0.646291031 C1.18667213,0.882616588 1.18667213,1.09029662 1.18667213,2.24430195 L1.18667213,3.54665015 C1.18667213,4.25664988 1.18667213,4.84183697 1.22488525,5.15182244 C1.24760656,5.36666386 1.29201639,5.5293295 1.51613115,5.55899808 C1.62044262,5.57332084 1.77845902,5.58866666 1.82286885,5.58866666 C1.89,5.58866666 1.91272131,5.61117385 1.91272131,5.63368105 C1.91272131,5.67051101 1.8817377,5.69199515 1.80014754,5.69199515 C1.38909836,5.69199515 0.910918033,5.67051101 0.873737705,5.67051101 C0.836557377,5.67051101 0.366639344,5.69199515 0.14252459,5.69199515 C0.0599016393,5.69199515 0.0216885246,5.67767239 0.0216885246,5.63368105 C0.0216885246,5.61117385 0.0371803279,5.58866666 0.105344262,5.58866666 C0.149754098,5.58866666 0.231344262,5.58150528 0.29847541,5.56718252 C0.448229508,5.53649089 0.493672131,5.36666386 0.522590164,5.15182244 C0.559770492,4.84183697 0.559770492,4.25664988 0.559770492,3.54665015 L0.559770492,2.24430195 Z" id="Fill-20"></path>
                        <path d="M4.37013443,1.14932686 C4.37013443,0.919139629 4.39182295,0.845479715 4.45172459,0.845479715 C4.50439672,0.845479715 4.63142951,0.993822598 4.68410164,1.04497532 C4.75123279,1.11965828 5.78918361,2.17033512 6.83539672,3.22817333 C7.41788852,3.79085323 8.16459344,4.55302873 8.35875738,4.73001713 L8.27613443,1.65266961 C8.26890492,1.25265535 8.22449508,1.11965828 8.02310164,1.06748251 C7.89606885,1.04497532 7.78452787,1.03781394 7.73185574,1.03781394 C7.65749508,1.03781394 7.64200328,1.00814536 7.64200328,0.978476782 C7.64200328,0.941646825 7.70190492,0.934485445 7.77626557,0.934485445 C8.0974623,0.934485445 8.41142951,0.956992641 8.47856066,0.956992641 C8.5539541,0.956992641 8.78426557,0.934485445 9.07654426,0.934485445 C9.15813443,0.934485445 9.18085574,0.941646825 9.18085574,0.978476782 C9.18085574,1.00814536 9.15813443,1.03065255 9.11372459,1.03781394 C9.06931475,1.04497532 9.00838033,1.04497532 8.92679016,1.06032113 C8.75431475,1.09715109 8.70267541,1.170811 8.70267541,1.61583965 L8.68821639,5.32952699 C8.68821639,5.69987267 8.67272459,5.73670262 8.62005246,5.73670262 C8.56738033,5.73670262 8.49301967,5.68554991 8.12741311,5.3448728 C8.0974623,5.32952699 7.05951148,4.30851873 6.40988852,3.6793403 C5.63323279,2.88033484 4.88549508,2.11099796 4.69856066,1.91866374 L4.79564262,4.81186148 C4.81113443,5.32236561 4.85554426,5.51469983 5.04247869,5.55971422 C5.16228197,5.58835974 5.28931475,5.58835974 5.34818361,5.58835974 C5.40808525,5.58835974 5.43803607,5.61086694 5.43803607,5.64053551 C5.43803607,5.67736547 5.40085574,5.69168823 5.31926557,5.69168823 C4.9154459,5.69168823 4.64692131,5.67020409 4.59424918,5.67020409 C4.54157705,5.67020409 4.26479016,5.69168823 3.94462623,5.69168823 C3.8764623,5.69168823 3.83205246,5.68554991 3.83205246,5.64053551 C3.83205246,5.61086694 3.86200328,5.58835974 3.93636393,5.58835974 C3.98903607,5.58835974 4.07165902,5.58835974 4.16874098,5.55971422 C4.3329541,5.50753845 4.37013443,5.30701979 4.37013443,4.76787014 C4.37013443,1.23730954 4.37736393,2.3769921 4.37013443,1.14932686" id="Fill-22"></path>
                        <path d="M11.5644246,1.14932686 C11.5644246,0.919139629 11.5861131,0.845479715 11.6460148,0.845479715 C11.6986869,0.845479715 11.8257197,0.993822598 11.8783918,1.04497532 C11.945523,1.11965828 12.9834738,2.17033512 14.0296869,3.22817333 C14.6121787,3.79085323 15.3588836,4.55302873 15.5530475,4.73001713 L15.4704246,1.65266961 C15.4631951,1.25265535 15.4187852,1.11965828 15.2173918,1.06748251 C15.090359,1.04497532 14.978818,1.03781394 14.9261459,1.03781394 C14.8517852,1.03781394 14.8362934,1.00814536 14.8362934,0.978476782 C14.8362934,0.941646825 14.8961951,0.934485445 14.9705557,0.934485445 C15.2917525,0.934485445 15.6057197,0.956992641 15.6728508,0.956992641 C15.7472115,0.956992641 15.9785557,0.934485445 16.2708344,0.934485445 C16.3524246,0.934485445 16.3751459,0.941646825 16.3751459,0.978476782 C16.3751459,1.00814536 16.3524246,1.03065255 16.3080148,1.03781394 C16.2636049,1.04497532 16.2026705,1.04497532 16.1210803,1.06032113 C15.9486049,1.09715109 15.8969656,1.170811 15.8969656,1.61583965 L15.8825066,5.32952699 C15.8825066,5.69987267 15.8670148,5.73670262 15.8143426,5.73670262 C15.7616705,5.73670262 15.6873098,5.68554991 15.3217033,5.3448728 C15.2917525,5.32952699 14.2538016,4.30851873 13.6041787,3.6793403 C12.827523,2.88033484 12.0797852,2.11099796 11.8928508,1.91866374 L11.9899328,4.81186148 C12.0054246,5.32236561 12.0498344,5.51469983 12.2367689,5.55971422 C12.3565721,5.58835974 12.4836049,5.58835974 12.5424738,5.58835974 C12.6023754,5.58835974 12.6323262,5.61086694 12.6323262,5.64053551 C12.6323262,5.67736547 12.5951459,5.69168823 12.5135557,5.69168823 C12.1097361,5.69168823 11.8412115,5.67020409 11.7885393,5.67020409 C11.7358672,5.67020409 11.4590803,5.69168823 11.1389164,5.69168823 C11.0707525,5.69168823 11.0263426,5.68554991 11.0263426,5.64053551 C11.0263426,5.61086694 11.0562934,5.58835974 11.1306541,5.58835974 C11.1833262,5.58835974 11.2659492,5.58835974 11.3630311,5.55971422 C11.5272443,5.50753845 11.5644246,5.30701979 11.5644246,4.76787014 C11.5644246,1.23730954 11.5716541,2.3769921 11.5644246,1.14932686" id="Fill-24"></path>
                        <path d="M18.9310869,2.75480607 C18.9310869,1.78495054 18.9310869,1.60796213 18.9155951,1.40846653 C18.9011361,1.2007865 18.8494967,1.097458 18.6326115,1.05244361 C18.5871689,1.04528223 18.5128082,1.03812085 18.4529066,1.03812085 C18.4002344,1.03812085 18.3558246,1.01561366 18.3558246,0.99310646 C18.3558246,0.949115122 18.3930049,0.934792361 18.4683984,0.934792361 C18.6171197,0.934792361 18.8195459,0.949115122 19.2378246,0.956276503 C19.2750049,0.956276503 20.6042016,0.956276503 20.7539557,0.949115122 C20.902677,0.941953742 20.9853,0.934792361 21.0452016,0.912285165 C21.0896115,0.897962404 21.0978738,0.889777969 21.1267918,0.889777969 C21.1422836,0.889777969 21.1567426,0.905123784 21.1567426,0.941953742 C21.1567426,0.985945079 21.1123328,1.09029662 21.0978738,1.27444641 C21.0896115,1.4002821 21.082382,1.5189564 21.0751525,1.6601379 C21.0751525,1.72663644 21.0606934,1.77062778 21.0224803,1.77062778 C20.9853,1.77062778 20.970841,1.7409592 20.970841,1.68878343 C20.9625787,1.57829356 20.9398574,1.50463364 20.9181689,1.45245787 C20.873759,1.30513804 20.8055951,1.25296227 20.432759,1.23045507 C20.3346443,1.22329369 19.5962016,1.21613231 19.5807098,1.21613231 C19.5579885,1.21613231 19.5435295,1.23045507 19.5435295,1.27444641 L19.5435295,2.95430167 C19.5435295,2.99931607 19.5517918,3.02898464 19.5889721,3.02898464 C19.6788246,3.02898464 20.4399885,3.02080021 20.5969721,3.00647745 C20.7684148,2.99931607 20.8809885,2.97680887 20.9398574,2.89496452 C20.970841,2.85097318 20.9925295,2.83665042 21.0224803,2.83665042 C21.0379721,2.83665042 21.0524311,2.8438118 21.0524311,2.88064176 C21.0524311,2.91747172 21.0224803,3.05763016 20.999759,3.27247158 C20.9770377,3.48015162 20.9770377,3.6284945 20.970841,3.72363855 C20.9625787,3.78297571 20.9481197,3.8054829 20.9181689,3.8054829 C20.8809885,3.8054829 20.873759,3.76046851 20.873759,3.70931579 C20.873759,3.66532446 20.8654967,3.59064149 20.8500049,3.53130433 C20.8210869,3.43616028 20.7756443,3.33180873 20.4926607,3.30930154 C20.321218,3.29497878 19.7160049,3.28065602 19.5962016,3.28065602 C19.5517918,3.28065602 19.5435295,3.30214016 19.5435295,3.33180873 L19.5435295,3.87198144 C19.5435295,4.10114561 19.5363,4.75283124 19.5435295,4.87866693 C19.5579885,5.15182244 19.5962016,5.29300395 19.7531852,5.35950248 C19.8647262,5.41167825 20.0433984,5.42600101 20.2974639,5.42600101 C20.4399885,5.42600101 20.6785623,5.43316239 20.8654967,5.38098662 C21.0896115,5.31448809 21.1422836,5.16716826 21.2011525,4.89298969 C21.2166443,4.81932978 21.2393656,4.7896612 21.2693164,4.7896612 C21.314759,4.7896612 21.314759,4.85615973 21.314759,4.90117413 C21.314759,4.95232684 21.2538246,5.41883963 21.2321361,5.54467532 C21.2011525,5.69199515 21.1495131,5.70734096 20.902677,5.70734096 C20.4100377,5.70734096 20.200382,5.69199515 19.9401197,5.69199515 C19.6788246,5.68483377 19.3349066,5.67051101 19.0581197,5.67051101 C18.886677,5.67051101 18.7441525,5.69199515 18.5654803,5.69199515 C18.4973164,5.69199515 18.4601361,5.67767239 18.4601361,5.64084243 C18.4601361,5.61117385 18.4900869,5.58866666 18.5272672,5.58866666 C18.571677,5.58866666 18.6243492,5.58150528 18.6770213,5.56718252 C18.8112836,5.53649089 18.9011361,5.44032377 18.9155951,4.98199542 C18.9238574,4.73032405 18.9310869,4.42749996 18.9310869,3.86482006 L18.9310869,2.75480607 Z" id="Fill-26"></path>
                        <path d="M24.302818,3.2803491 C24.302818,3.31717906 24.3100475,3.35400901 24.3399984,3.36833177 C24.4370803,3.42050755 24.7355557,3.46552194 25.0051131,3.46552194 C25.1610639,3.46552194 25.3490311,3.4573375 25.504982,3.35400901 C25.7290967,3.21385057 25.877818,2.88749622 25.877818,2.41382205 C25.877818,1.60765522 25.4450803,1.16364962 24.7809984,1.16364962 C24.5940639,1.16364962 24.4370803,1.17899544 24.3472279,1.20047958 C24.3245066,1.20866401 24.302818,1.23014816 24.302818,1.26800117 L24.302818,3.2803491 Z M23.726523,2.75449916 C23.726523,1.77850529 23.726523,1.60049383 23.7130967,1.40099823 C23.6976049,1.20047958 23.6449328,1.08998971 23.4135885,1.04497532 C23.3691787,1.03781394 23.2937852,1.03065255 23.2349164,1.03065255 C23.1822443,1.03065255 23.1522934,1.01632979 23.1522934,0.986661217 C23.1522934,0.956992641 23.173982,0.934485445 23.2421459,0.934485445 C23.5623098,0.934485445 24.0188016,0.956992641 24.0332607,0.956992641 C24.1014246,0.956992641 24.608523,0.934485445 24.8181787,0.934485445 C25.2354246,0.934485445 25.6919164,0.971315402 26.0430639,1.21582539 C26.1845557,1.31915389 26.4912934,1.61583965 26.4912934,2.11815934 C26.4912934,2.52533498 26.2899,3.04402354 25.7001787,3.51667466 C26.2444574,4.18268305 26.6926869,4.73001713 27.0737852,5.12287001 C27.4321623,5.48503125 27.656277,5.5443684 27.8649,5.57403698 C27.9175721,5.58119836 28.0745557,5.58835974 28.097277,5.58835974 C28.1561459,5.58835974 28.1788672,5.61086694 28.1788672,5.64053551 C28.1788672,5.67736547 28.1499492,5.69168823 28.0446049,5.69168823 L27.5220148,5.69168823 C27.1708672,5.69168823 27.0066541,5.67020409 26.842441,5.60370556 C26.5284738,5.47070849 26.304359,5.13719277 25.9160311,4.64203446 C25.6247852,4.28601154 25.325277,3.88702034 25.1982443,3.73151607 C25.1693262,3.7018475 25.1538344,3.68650168 25.1094246,3.68650168 L24.3399984,3.6793403 C24.3100475,3.6793403 24.302818,3.68650168 24.302818,3.71719331 L24.302818,3.8205218 C24.302818,4.41184722 24.302818,4.95201993 24.3399984,5.21903712 C24.3627197,5.39602552 24.3844082,5.5443684 24.6312443,5.57403698 C24.7066377,5.58119836 24.7882279,5.58835974 24.8470967,5.58835974 C24.9152607,5.58835974 24.9452115,5.61086694 24.9452115,5.63337413 C24.9452115,5.67020409 24.9152607,5.69168823 24.8409,5.69168823 C24.4525721,5.69168823 24.0332607,5.67020409 24.0033098,5.67020409 C23.8845393,5.67020409 23.5550803,5.69168823 23.3536869,5.69168823 C23.2793262,5.69168823 23.2483426,5.67736547 23.2483426,5.63337413 C23.2483426,5.61086694 23.2937852,5.58835974 23.3381951,5.58835974 C23.3908672,5.58835974 23.4435393,5.58835974 23.503441,5.57403698 C23.6304738,5.55152978 23.6759164,5.47070849 23.6976049,5.29269703 C23.7347852,5.0267029 23.726523,4.42003166 23.726523,3.86451314 L23.726523,2.75449916 Z" id="Fill-28"></path>
                        <path d="M32.9765754,5.1001582 C32.3414115,4.55282412 32.1771984,3.82747857 32.1771984,3.21364595 C32.1771984,2.79930894 32.3414115,2.06680201 32.9311328,1.50412211 C33.3349525,1.11945367 33.9401656,0.845275104 34.9409361,0.845275104 C35.2838213,0.845275104 35.5606082,0.875966735 35.9262148,0.927119453 C36.1658213,0.96394941 36.4043951,1.00077937 36.5841,1.00794075 C36.6440016,1.00794075 36.6522639,1.04579376 36.6522639,1.08262372 C36.6522639,1.14196087 36.6285098,1.2084594 36.6140508,1.44478496 C36.6068213,1.652465 36.6068213,2.03713344 36.5995918,2.12613917 C36.5913295,2.22946766 36.5768705,2.26629761 36.5396902,2.26629761 C36.487018,2.26629761 36.4797885,2.22230628 36.4797885,2.12613917 C36.4797885,1.91129775 36.375477,1.62279642 36.1885426,1.48161492 C35.9644279,1.2892807 35.4418377,1.10513091 34.8665754,1.10513091 C34.0362148,1.10513091 33.6561492,1.33429509 33.4320344,1.53379069 C32.9466246,1.9706349 32.8340508,2.50262317 32.8340508,3.1543088 C32.8340508,4.38299709 33.8430836,5.46231944 35.1567885,5.46231944 C35.6659525,5.46231944 36.0387885,5.41116673 36.3011164,5.15949535 C36.4353787,5.01831385 36.5097393,4.83416406 36.5469197,4.62648403 C36.5624115,4.55282412 36.5841,4.51599416 36.6285098,4.51599416 C36.666723,4.51599416 36.666723,4.56714688 36.666723,4.61932265 C36.666723,4.6786598 36.569641,5.27816966 36.5169689,5.4408353 C36.472559,5.55950961 36.4498377,5.58099375 36.3455262,5.62600814 C36.0842311,5.73649801 35.5833295,5.77332797 35.1650508,5.77332797 C34.1787393,5.77332797 33.5074279,5.55132517 32.9765754,5.1001582" id="Fill-30"></path>
                        <path d="M39.0512213,2.75480607 C39.0512213,1.77778916 39.0512213,1.60080075 39.0357295,1.4002821 C39.0212705,1.2007865 38.9768607,1.09029662 38.8188443,1.06062805 C38.7444836,1.04528223 38.6918115,1.04528223 38.6474016,1.03812085 C38.5957623,1.03095947 38.5658115,1.01561366 38.5658115,0.985945079 C38.5658115,0.949115122 38.5957623,0.934792361 38.6783852,0.934792361 C38.9086967,0.934792361 39.3342049,0.956276503 39.357959,0.956276503 C39.386877,0.956276503 39.8206475,0.934792361 40.0292705,0.934792361 C40.1046639,0.934792361 40.1418443,0.949115122 40.1418443,0.985945079 C40.1418443,1.01561366 40.119123,1.03095947 40.0602541,1.03812085 C40.0148115,1.04528223 39.9765984,1.04528223 39.924959,1.05244361 C39.7091066,1.08211219 39.6863852,1.19362511 39.6719262,1.40846653 C39.6564344,1.60796213 39.6636639,1.77778916 39.6636639,2.75480607 L39.6636639,3.86482006 C39.6636639,4.43466134 39.6564344,4.95232684 39.6936148,5.21832098 C39.7235656,5.43316239 39.7535164,5.51500674 39.9476803,5.55899808 C40.0447623,5.58150528 40.2017459,5.58866666 40.2316967,5.58866666 C40.2988279,5.59582804 40.3143197,5.61117385 40.3143197,5.64084243 C40.3143197,5.67051101 40.2833361,5.69199515 40.2089754,5.69199515 C39.827877,5.69199515 39.3951393,5.67051101 39.357959,5.67051101 C39.3342049,5.67051101 38.8942377,5.69199515 38.6856148,5.69199515 C38.6174508,5.69199515 38.5658115,5.67767239 38.5658115,5.64084243 C38.5658115,5.61117385 38.5957623,5.58866666 38.6628934,5.58866666 C38.7000738,5.58866666 38.7816639,5.58150528 38.8425984,5.56718252 C38.9685984,5.53649089 38.9913197,5.38917106 39.014041,5.2111596 C39.0512213,4.94516546 39.0512213,4.41931552 39.0512213,3.86482006 L39.0512213,2.75480607 Z" id="Fill-32"></path>
                        <path d="M43.4587426,3.2803491 C43.4587426,3.31717906 43.4659721,3.35400901 43.495923,3.36833177 C43.5930049,3.42050755 43.8914803,3.46552194 44.1610377,3.46552194 C44.3169885,3.46552194 44.5049557,3.4573375 44.6609066,3.35400901 C44.8850213,3.21385057 45.0337426,2.88749622 45.0337426,2.41382205 C45.0337426,1.60765522 44.6010049,1.16364962 43.936923,1.16364962 C43.7489557,1.16364962 43.5930049,1.17899544 43.5031525,1.20047958 C43.4804311,1.20866401 43.4587426,1.23014816 43.4587426,1.26800117 L43.4587426,3.2803491 Z M42.8824475,2.75449916 C42.8824475,1.77850529 42.8824475,1.60049383 42.8690213,1.40099823 C42.8535295,1.20047958 42.8008574,1.08998971 42.5695131,1.04497532 C42.5251033,1.03781394 42.4497098,1.03065255 42.390841,1.03065255 C42.3381689,1.03065255 42.308218,1.01632979 42.308218,0.986661217 C42.308218,0.956992641 42.3299066,0.934485445 42.3980705,0.934485445 C42.7182344,0.934485445 43.1747262,0.956992641 43.1891852,0.956992641 C43.2573492,0.956992641 43.7644475,0.934485445 43.9741033,0.934485445 C44.3913492,0.934485445 44.847841,0.971315402 45.1989885,1.21582539 C45.3404803,1.31915389 45.647218,1.61583965 45.647218,2.11815934 C45.647218,2.52533498 45.4458246,3.04402354 44.8561033,3.51667466 C45.400382,4.18268305 45.8486115,4.73001713 46.2297098,5.12287001 C46.5880869,5.48503125 46.8122016,5.5443684 47.0208246,5.57403698 C47.0734967,5.58119836 47.2304803,5.58835974 47.2532016,5.58835974 C47.3120705,5.58835974 47.3358246,5.61086694 47.3358246,5.64053551 C47.3358246,5.67736547 47.3058738,5.69168823 47.2005295,5.69168823 L46.6779393,5.69168823 C46.3267918,5.69168823 46.1625787,5.67020409 45.9983656,5.60370556 C45.6843984,5.47070849 45.4602836,5.13719277 45.0719557,4.64203446 C44.7807098,4.28601154 44.4812016,3.88702034 44.3541689,3.73151607 C44.3252508,3.7018475 44.309759,3.68650168 44.2653492,3.68650168 L43.495923,3.6793403 C43.4659721,3.6793403 43.4587426,3.68650168 43.4587426,3.71719331 L43.4587426,3.8205218 C43.4587426,4.41184722 43.4587426,4.95201993 43.495923,5.21903712 C43.5186443,5.39602552 43.5403328,5.5443684 43.7871689,5.57403698 C43.8625623,5.58119836 43.9441525,5.58835974 44.0030213,5.58835974 C44.0711852,5.58835974 44.1011361,5.61086694 44.1011361,5.63337413 C44.1011361,5.67020409 44.0711852,5.69168823 43.9968246,5.69168823 C43.6084967,5.69168823 43.1891852,5.67020409 43.1592344,5.67020409 C43.0404639,5.67020409 42.7110049,5.69168823 42.5096115,5.69168823 C42.4352508,5.69168823 42.4042672,5.67736547 42.4042672,5.63337413 C42.4042672,5.61086694 42.4497098,5.58835974 42.4941197,5.58835974 C42.5467918,5.58835974 42.5994639,5.58835974 42.6593656,5.57403698 C42.7863984,5.55152978 42.831841,5.47070849 42.8535295,5.29269703 C42.8907098,5.0267029 42.8824475,4.42003166 42.8824475,3.86451314 L42.8824475,2.75449916 Z" id="Fill-34"></path>
                        <path d="M48.9121672,5.1001582 C48.2770033,4.55282412 48.1127902,3.82747857 48.1127902,3.21364595 C48.1127902,2.79930894 48.2770033,2.06680201 48.8667246,1.50412211 C49.2705443,1.11945367 49.8757574,0.845275104 50.8765279,0.845275104 C51.2194131,0.845275104 51.4962,0.875966735 51.8618066,0.927119453 C52.1014131,0.96394941 52.3399869,1.00077937 52.5196918,1.00794075 C52.5795934,1.00794075 52.5878557,1.04579376 52.5878557,1.08262372 C52.5878557,1.14196087 52.5641016,1.2084594 52.5496426,1.44478496 C52.5424131,1.652465 52.5424131,2.03713344 52.5351836,2.12613917 C52.5269213,2.22946766 52.5124623,2.26629761 52.475282,2.26629761 C52.4226098,2.26629761 52.4153803,2.22230628 52.4153803,2.12613917 C52.4153803,1.91129775 52.3110689,1.62279642 52.1241344,1.48161492 C51.9000197,1.2892807 51.3774295,1.10513091 50.8021672,1.10513091 C49.9718066,1.10513091 49.591741,1.33429509 49.3676262,1.53379069 C48.8822164,1.9706349 48.7696426,2.50262317 48.7696426,3.1543088 C48.7696426,4.38299709 49.7786754,5.46231944 51.0923803,5.46231944 C51.6015443,5.46231944 51.9743803,5.41116673 52.2367082,5.15949535 C52.3709705,5.01831385 52.4453311,4.83416406 52.4825115,4.62648403 C52.4980033,4.55282412 52.5196918,4.51599416 52.5641016,4.51599416 C52.6023148,4.51599416 52.6023148,4.56714688 52.6023148,4.61932265 C52.6023148,4.6786598 52.5052328,5.27816966 52.4525607,5.4408353 C52.4081508,5.55950961 52.3854295,5.58099375 52.281118,5.62600814 C52.019823,5.73649801 51.5189213,5.77332797 51.1006426,5.77332797 C50.1143311,5.77332797 49.4430197,5.55132517 48.9121672,5.1001582" id="Fill-36"></path>
                        <path d="M55.5990492,3.87924512 C55.5990492,4.73042635 55.629,5.15908613 55.7560328,5.27776044 C55.8758361,5.38108893 56.0245574,5.42610332 56.539918,5.42610332 C56.8683443,5.42610332 57.1688852,5.42610332 57.3330984,5.21842328 C57.407459,5.10793341 57.4590984,4.95959053 57.4735574,4.84910066 C57.4818197,4.78976351 57.4962787,4.76009493 57.5344918,4.76009493 C57.5634098,4.76009493 57.5789016,4.78157907 57.5789016,4.85626204 C57.5789016,4.92992195 57.5344918,5.35142035 57.4890492,5.52227043 C57.4446393,5.66959026 57.4518689,5.70744327 57.0934918,5.70744327 C56.5853607,5.70744327 56.0245574,5.66959026 55.2778525,5.66959026 C55.0310164,5.66959026 54.8822951,5.69209745 54.621,5.69209745 C54.5456066,5.69209745 54.5022295,5.67777469 54.5022295,5.6327603 C54.5022295,5.61127616 54.523918,5.58876896 54.5838197,5.58876896 C54.6426885,5.58876896 54.703623,5.58876896 54.7624918,5.57342315 C54.8895246,5.55193901 54.9339344,5.40359612 54.9566557,5.22558466 C55.0020984,4.94526777 54.9866066,4.43374059 54.9866066,3.86492236 L54.9866066,2.75490838 C54.9866066,1.77789146 54.9866066,1.61522582 54.9721475,1.41573022 C54.9566557,1.20805018 54.9277377,1.07505311 54.6736721,1.04538454 C54.6282295,1.03822316 54.5456066,1.03822316 54.4867377,1.03822316 C54.4340656,1.03822316 54.4041148,1.01571596 54.4041148,0.986047385 C54.4041148,0.949217428 54.4412951,0.934894666 54.5156557,0.934894666 C54.829623,0.934894666 55.2778525,0.956378808 55.2933443,0.956378808 C55.3976557,0.956378808 55.8531148,0.934894666 56.0617377,0.934894666 C56.1371311,0.934894666 56.1598525,0.956378808 56.1598525,0.986047385 C56.1598525,1.01571596 56.1226721,1.03822316 56.0772295,1.03822316 C56.0245574,1.03822316 55.9501967,1.04538454 55.8758361,1.05254592 C55.6661803,1.08221449 55.6217705,1.2008888 55.6073115,1.41573022 C55.5918197,1.61522582 55.5990492,1.77789146 55.5990492,2.75490838 L55.5990492,3.87924512 Z" id="Fill-38"></path>
                        <path d="M59.9691836,2.24430195 C59.9691836,1.09029662 59.9691836,0.882616588 59.9547246,0.646291031 C59.9402656,0.394619657 59.8793311,0.275945351 59.6335279,0.223769579 C59.5808557,0.209446818 59.4837738,0.209446818 59.4166426,0.202285437 C59.3639705,0.195124057 59.3195607,0.186939622 59.3195607,0.157271045 C59.3195607,0.113279708 59.356741,0.0979338922 59.4383311,0.0979338922 C59.6108066,0.0979338922 59.8132328,0.0979338922 60.2831508,0.120441088 C60.3347902,0.120441088 61.8220033,0.120441088 61.9934459,0.113279708 C62.157659,0.106118327 62.2929541,0.0907725116 62.3373639,0.06928837 C62.3828066,0.046781174 62.3972656,0.0396197935 62.4199869,0.0396197935 C62.4427082,0.0396197935 62.4489049,0.06928837 62.4489049,0.106118327 C62.4489049,0.157271045 62.4044951,0.246276775 62.3900361,0.45395681 C62.3828066,0.564446682 62.3745443,0.705628184 62.3590525,0.897962404 C62.3528557,0.971622318 62.3301344,1.02379809 62.3001836,1.02379809 C62.2557738,1.02379809 62.240282,0.986968133 62.240282,0.926607926 C62.240282,0.83146387 62.225823,0.742458141 62.2031016,0.683120988 C62.1504295,0.513293963 61.9934459,0.438610995 61.6660525,0.408942418 C61.5390197,0.394619657 60.723118,0.387458277 60.6415279,0.387458277 C60.611577,0.387458277 60.5960852,0.408942418 60.5960852,0.461118191 L60.5960852,2.5031347 C60.5960852,2.55531047 60.6043475,2.57679461 60.6415279,2.57679461 C60.7386098,2.57679461 61.6577902,2.57679461 61.8292328,2.56247185 C62.0306262,2.54712604 62.128741,2.5256419 62.2031016,2.43663617 C62.240282,2.39264483 62.2630033,2.36297625 62.2929541,2.36297625 C62.3146426,2.36297625 62.3301344,2.37729901 62.3301344,2.42129035 C62.3301344,2.46630474 62.2929541,2.59214043 62.2702328,2.83665042 C62.2475115,3.0658146 62.2475115,3.23564162 62.240282,3.33897011 C62.2320197,3.41365308 62.2185934,3.45048304 62.1876098,3.45048304 C62.1432,3.45048304 62.1359705,3.39114589 62.1359705,3.33180873 C62.1359705,3.2653102 62.128741,3.19165029 62.1049869,3.1241287 C62.0760689,3.01363883 61.9862164,2.91031034 61.716659,2.88064176 C61.5152656,2.85813456 60.7757902,2.8438118 60.6487574,2.8438118 C60.611577,2.8438118 60.5960852,2.86529594 60.5960852,2.89496452 L60.5960852,3.54665015 C60.5960852,3.79832152 60.5898885,4.65666413 60.5960852,4.8121684 C60.611577,5.11499249 60.6570197,5.27765813 60.8439541,5.3523411 C60.9709869,5.40349382 61.1723803,5.41883963 61.4636262,5.41883963 C61.687741,5.41883963 61.9335443,5.41167825 62.1359705,5.3523411 C62.3745443,5.27765813 62.4571672,5.12215387 62.5170689,4.80398396 C62.5315279,4.72316267 62.5459869,4.69349409 62.5831672,4.69349409 C62.6286098,4.69349409 62.6286098,4.75283124 62.6286098,4.80398396 C62.6286098,4.86332111 62.569741,5.36666386 62.5315279,5.52216812 C62.4798885,5.71450234 62.4199869,5.71450234 62.128741,5.71450234 C61.5762,5.71450234 61.3283311,5.69915653 61.0370852,5.69199515 C60.7386098,5.68483377 60.3946918,5.67051101 60.1044787,5.67051101 C59.9247738,5.67051101 59.7450689,5.69915653 59.5519377,5.69199515 C59.4693148,5.69199515 59.4311016,5.67767239 59.4311016,5.63368105 C59.4311016,5.61117385 59.4693148,5.59582804 59.5147574,5.58866666 C59.589118,5.58150528 59.6335279,5.58150528 59.6862,5.56718252 C59.8421508,5.5293295 59.9402656,5.42600101 59.9547246,4.87048249 C59.9619541,4.58300422 59.9691836,4.20549716 59.9691836,3.54665015 L59.9691836,2.24430195 Z" id="Fill-40"></path>
                    </g>
                </g>
            </g>
        </g>
    </g>
</svg>