<svg xmlns="http://www.w3.org/2000/svg" width="36" height="35" viewBox="0 0 36 35">
    <g fill="none" fill-rule="evenodd">
        <path fill="#55ACEE" d="M.531 17.5C.531 7.835 8.366 0 18.031 0s17.5 7.835 17.5 17.5S27.696 35 18.031 35 .531 27.165.531 17.5z"/>
        <path fill="#FFF" d="M17.507 14.224l.037.606-.612-.074c-2.228-.285-4.174-1.249-5.827-2.867l-.808-.804-.208.593c-.44 1.323-.159 2.72.76 3.658.489.52.379.594-.466.285-.294-.1-.55-.173-.575-.136-.086.086.208 1.21.44 1.656.319.618.967 1.223 1.677 1.582l.6.284-.71.012c-.685 0-.71.012-.636.272.244.803 1.211 1.656 2.289 2.027l.759.26-.661.395c-.98.568-2.13.89-3.281.914-.55.012-1.004.062-1.004.099 0 .124 1.494.816 2.363 1.088 2.607.803 5.704.457 8.03-.915 1.652-.976 3.305-2.916 4.076-4.795.416-1 .832-2.83.832-3.707 0-.569.037-.643.723-1.323.404-.395.783-.828.856-.951.123-.235.11-.235-.514-.025-1.04.37-1.187.321-.673-.235.38-.395.832-1.112.832-1.322 0-.037-.183.025-.391.136-.22.124-.71.309-1.077.42l-.661.21-.6-.408c-.33-.222-.796-.47-1.04-.543-.625-.173-1.58-.149-2.143.05-1.53.555-2.497 1.989-2.387 3.558z"/>
    </g>
</svg>
